<svg width="51" height="50" viewBox="0 0 51 50" fill="none" xmlns="http://www.w3.org/2000/svg">
<rect x="0.609863" width="50" height="50" rx="25" fill="url(#paint0_linear_1_172)"/>
<path d="M25.6099 20.2C24.7654 20.2 24.0321 20.5111 23.4099 21.1333C22.7876 21.7556 22.4765 22.4889 22.4765 23.3333C22.4765 24.1778 22.7876 24.9111 23.4099 25.5333C24.0321 26.1556 24.7654 26.4667 25.6099 26.4667C26.4543 26.4667 27.1876 26.1556 27.8099 25.5333C28.4321 24.9111 28.7432 24.1778 28.7432 23.3333C28.7432 22.4889 28.4321 21.7556 27.8099 21.1333C27.1876 20.5111 26.4543 20.2 25.6099 20.2ZM23.7432 23.3333C23.7432 22.8 23.921 22.3556 24.2765 22C24.6321 21.6445 25.0765 21.4667 25.6099 21.4667C26.1432 21.4667 26.5876 21.6445 26.9432 22C27.2988 22.3556 27.4765 22.8 27.4765 23.3333C27.4765 23.8667 27.2988 24.3111 26.9432 24.6667C26.5876 25.0222 26.1432 25.2 25.6099 25.2C25.0765 25.2 24.6321 25.0222 24.2765 24.6667C23.921 24.3111 23.7432 23.8667 23.7432 23.3333ZM25.6099 15.2C24.2765 15.2 23.0543 15.5556 21.9432 16.2667C20.8321 16.9778 19.9543 17.9333 19.3099 19.1333C18.6654 20.3333 18.3432 21.6222 18.3432 23C18.3432 24.2 18.8543 25.6889 19.8765 27.4667C20.5876 28.8 21.5654 30.2445 22.8099 31.8V31.8667C23.4321 32.5778 23.8543 33.0667 24.0765 33.3333C24.5654 33.7333 25.0765 33.9333 25.6099 33.9333C26.1432 33.9333 26.6543 33.7333 27.1432 33.3333C27.3654 33.0667 27.7876 32.5778 28.4099 31.8667V31.8C29.6543 30.2445 30.6321 28.8 31.3432 27.4667C32.3654 25.6889 32.8765 24.2 32.8765 23C32.8765 21.6222 32.5543 20.3333 31.9099 19.1333C31.2654 17.9333 30.3876 16.9778 29.2765 16.2667C28.1654 15.5556 26.9432 15.2 25.6099 15.2ZM19.5432 23C19.5432 21.8 19.821 20.7 20.3765 19.7C20.9321 18.7 21.6765 17.9111 22.6099 17.3333C23.5432 16.7556 24.5432 16.4667 25.6099 16.4667C26.6765 16.4667 27.6765 16.7556 28.6099 17.3333C29.5432 17.9111 30.2876 18.7 30.8432 19.7C31.3988 20.7 31.6765 21.8 31.6765 23C31.6765 23.9778 31.2099 25.2667 30.2765 26.8667C29.5654 28.1111 28.6099 29.4889 27.4099 31C26.8765 31.7556 26.4988 32.2333 26.2765 32.4333C26.0543 32.6333 25.8321 32.7333 25.6099 32.7333C25.3876 32.7333 25.1654 32.6333 24.9432 32.4333C24.721 32.2333 24.3432 31.7556 23.8099 31C22.6099 29.4889 21.6543 28.1111 20.9432 26.8667C20.0099 25.2667 19.5432 23.9778 19.5432 23Z" fill="#DDDDDD"/>
<defs>
<linearGradient id="paint0_linear_1_172" x1="15.2642" y1="-5.0459" x2="35.9555" y2="55.0459" gradientUnits="userSpaceOnUse">
<stop stop-color="#2A1454"/>
<stop offset="1" stop-color="#8750F7"/>
</linearGradient>
</defs>
</svg>
