<svg width="1440" height="5169" viewBox="0 0 1440 5169" fill="none" xmlns="http://www.w3.org/2000/svg">
<g clip-path="url(#clip0_17_3)">
<rect width="1440" height="5169" fill="#050709"/>
<g filter="url(#filter0_f_17_3)">
<rect x="791" y="507" width="220" height="220" rx="110" fill="url(#paint0_linear_17_3)"/>
</g>
<g filter="url(#filter1_f_17_3)">
<path d="M1204 98.5C1204 11.5152 1274.52 -59 1361.5 -59H1405.5C1492.48 -59 1563 11.5152 1563 98.5V126.5C1563 213.485 1492.48 284 1405.5 284H1361.5C1274.52 284 1204 213.485 1204 126.5V98.5Z" fill="url(#paint1_linear_17_3)"/>
</g>
<g filter="url(#filter2_f_17_3)">
<rect x="330" y="1285.34" width="631.8" height="573.132" rx="286.566" fill="url(#paint2_linear_17_3)"/>
</g>
</g>
<defs>
<filter id="filter0_f_17_3" x="641" y="357" width="520" height="520" filterUnits="userSpaceOnUse" color-interpolation-filters="sRGB">
<feFlood flood-opacity="0" result="BackgroundImageFix"/>
<feBlend mode="normal" in="SourceGraphic" in2="BackgroundImageFix" result="shape"/>
<feGaussianBlur stdDeviation="75" result="effect1_foregroundBlur_17_3"/>
</filter>
<filter id="filter1_f_17_3" x="1054" y="-209" width="659" height="643" filterUnits="userSpaceOnUse" color-interpolation-filters="sRGB">
<feFlood flood-opacity="0" result="BackgroundImageFix"/>
<feBlend mode="normal" in="SourceGraphic" in2="BackgroundImageFix" result="shape"/>
<feGaussianBlur stdDeviation="75" result="effect1_foregroundBlur_17_3"/>
</filter>
<filter id="filter2_f_17_3" x="121.067" y="1076.41" width="1049.67" height="990.998" filterUnits="userSpaceOnUse" color-interpolation-filters="sRGB">
<feFlood flood-opacity="0" result="BackgroundImageFix"/>
<feBlend mode="normal" in="SourceGraphic" in2="BackgroundImageFix" result="shape"/>
<feGaussianBlur stdDeviation="104.467" result="effect1_foregroundBlur_17_3"/>
</filter>
<linearGradient id="paint0_linear_17_3" x1="1026.49" y1="594.872" x2="775.506" y2="639.128" gradientUnits="userSpaceOnUse">
<stop stop-color="#8750F7"/>
<stop offset="1" stop-color="#7343D2" stop-opacity="0"/>
</linearGradient>
<linearGradient id="paint1_linear_17_3" x1="1586.95" y1="76.6673" x2="1180.08" y2="148.491" gradientUnits="userSpaceOnUse">
<stop stop-color="#8750F7"/>
<stop offset="1" stop-color="#7343D2" stop-opacity="0"/>
</linearGradient>
<linearGradient id="paint2_linear_17_3" x1="1001.28" y1="1509.24" x2="290.52" y2="1634.57" gradientUnits="userSpaceOnUse">
<stop stop-color="#8750F7"/>
<stop offset="1" stop-color="#7343D2" stop-opacity="0"/>
</linearGradient>
<clipPath id="clip0_17_3">
<rect width="1440" height="5169" fill="white"/>
</clipPath>
</defs>
</svg>
