<svg width="51" height="50" viewBox="0 0 51 50" fill="none" xmlns="http://www.w3.org/2000/svg">
<rect x="0.609863" width="50" height="50" rx="25" fill="url(#paint0_linear_1_166)"/>
<g clip-path="url(#clip0_1_166)">
<path d="M33.2765 16.8666H17.9432C17.321 16.8666 16.7765 17.1 16.3099 17.5666C15.8432 18.0333 15.6099 18.5777 15.6099 19.2V21.1333L24.2099 27.5333C24.6099 27.8444 25.0765 28 25.6099 28C26.1432 28 26.6099 27.8444 27.0099 27.5333L35.6099 21.1333V19.2C35.6099 18.5777 35.3765 18.0333 34.9099 17.5666C34.4432 17.1 33.8988 16.8666 33.2765 16.8666ZM34.0765 20.4L26.0765 26.2666C25.9432 26.4 25.7876 26.4666 25.6099 26.4666C25.4321 26.4666 25.2765 26.4 25.1432 26.2666L17.1432 20.4V19.2C17.1432 18.9777 17.221 18.8 17.3765 18.6666C17.5321 18.5333 17.721 18.4666 17.9432 18.4666H33.2765C33.4988 18.4666 33.6876 18.5333 33.8432 18.6666C33.9988 18.8 34.0765 18.9777 34.0765 19.2V20.4ZM34.0765 24.2666L35.6099 23.0666V30.8C35.6099 31.4222 35.3765 31.9666 34.9099 32.4333C34.4432 32.9 33.8988 33.1333 33.2765 33.1333H17.9432C17.321 33.1333 16.7765 32.9 16.3099 32.4333C15.8432 31.9666 15.6099 31.4222 15.6099 30.8V23.0666L17.1432 24.2666V30.8C17.1432 31.0222 17.221 31.2 17.3765 31.3333C17.5321 31.4666 17.721 31.5333 17.9432 31.5333H33.2765C33.4988 31.5333 33.6876 31.4666 33.8432 31.3333C33.9988 31.2 34.0765 31.0222 34.0765 30.8V24.2666Z" fill="#DDDDDD"/>
</g>
<defs>
<linearGradient id="paint0_linear_1_166" x1="15.2642" y1="-5.0459" x2="35.9555" y2="55.0459" gradientUnits="userSpaceOnUse">
<stop stop-color="#2A1454"/>
<stop offset="1" stop-color="#8750F7"/>
</linearGradient>
<clipPath id="clip0_1_166">
<rect width="20" height="20" fill="white" transform="matrix(1 0 0 -1 15.6099 35)"/>
</clipPath>
</defs>
</svg>
