<svg width="290" height="255" viewBox="0 0 290 255" fill="none" xmlns="http://www.w3.org/2000/svg">
<path d="M0.399628 254.458H-0.473099V255.33H0.399628V254.458ZM0.399628 0.573212V-0.299515H-0.473099V0.573212H0.399628ZM31.1434 0.573212H32.0162V-0.299515H31.1434V0.573212ZM31.1434 113.631H30.2707V114.504H31.1434V113.631ZM166.515 113.631V114.504H167.388V113.631H166.515ZM166.515 0.573212V-0.299515H165.643V0.573212H166.515ZM197.259 0.573212H198.132V-0.299515H197.259V0.573212ZM197.259 254.458V255.33H198.132V254.458H197.259ZM166.515 254.458H165.643V255.33H166.515V254.458ZM166.515 140.904H167.388V140.031H166.515V140.904ZM31.1434 140.904V140.031H30.2707V140.904H31.1434ZM31.1434 254.458V255.33H32.0162V254.458H31.1434ZM1.27235 254.458V0.573212H-0.473099V254.458H1.27235ZM0.399628 1.44594H31.1434V-0.299515H0.399628V1.44594ZM30.2707 0.573212V113.631H32.0162V0.573212H30.2707ZM31.1434 114.504H166.515V112.758H31.1434V114.504ZM167.388 113.631V0.573212H165.643V113.631H167.388ZM166.515 1.44594H197.259V-0.299515H166.515V1.44594ZM196.386 0.573212V254.458H198.132V0.573212H196.386ZM197.259 253.585H166.515V255.33H197.259V253.585ZM167.388 254.458V140.904H165.643V254.458H167.388ZM166.515 140.031H31.1434V141.777H166.515V140.031ZM30.2707 140.904V254.458H32.0162V140.904H30.2707ZM31.1434 253.585H0.399628V255.33H31.1434V253.585ZM289.553 0.573212H290.425V-0.299515H289.553V0.573212ZM289.553 254.458V255.33H290.425V254.458H289.553ZM258.809 254.458H257.936V255.33H258.809V254.458ZM258.809 0.573212V-0.299515H257.936V0.573212H258.809ZM288.68 0.573212V254.458H290.425V0.573212H288.68ZM289.553 253.585H258.809V255.33H289.553V253.585ZM259.681 254.458V0.573212H257.936V254.458H259.681ZM258.809 1.44594H289.553V-0.299515H258.809V1.44594Z" fill="#2A1454"/>
</svg>
