<svg width="69" height="69" viewBox="0 0 69 69" fill="none" xmlns="http://www.w3.org/2000/svg">
<path d="M12.7262 58.6522L7.8811 4.3125H61.1189L56.2673 58.6435L34.4677 64.6875L12.7262 58.6522Z" fill="#E44F26"/>
<path d="M34.5 60.0688L52.1166 55.1849L56.2609 8.75653H34.5V60.0688Z" fill="#F1662A"/>
<path d="M34.5 28.9089H25.6809L25.0729 22.0843H34.5V15.4194H17.7891L17.9486 17.2091L19.5852 35.5738H34.5V28.9089ZM34.5 46.2171L34.4698 46.2257L27.048 44.2226L26.5736 38.9074H19.8828L20.8164 49.3695L34.4698 53.1602L34.5 53.1516V46.2171Z" fill="#EBEBEB"/>
<path d="M34.4763 28.9089V35.5738H42.683L41.911 44.2182L34.4763 46.2236V53.1581L48.1404 49.3695L48.2396 48.244L49.8051 30.6986L49.9689 28.9089H34.4763ZM34.4763 15.4194V22.0843H50.5749L50.7085 20.5879L51.0126 17.2091L51.1721 15.4194H34.4763Z" fill="white"/>
</svg>
