<svg width="64" height="64" viewBox="0 0 64 64" fill="none" xmlns="http://www.w3.org/2000/svg">
<path d="M0 13.3333C0 9.79711 1.40476 6.40573 3.90524 3.90524C6.40573 1.40476 9.79711 0 13.3333 0H50.6667C54.2029 0 57.5943 1.40476 60.0948 3.90524C62.5952 6.40573 64 9.79711 64 13.3333V50.6667C64 54.2029 62.5952 57.5943 60.0948 60.0948C57.5943 62.5952 54.2029 64 50.6667 64H13.3333C9.79711 64 6.40573 62.5952 3.90524 60.0948C1.40476 57.5943 0 54.2029 0 50.6667V13.3333ZM29.3333 21.3333C28.6261 21.3333 27.9478 21.6143 27.4477 22.1144C26.9476 22.6145 26.6667 23.2928 26.6667 24V45.3333C26.6667 46.0406 26.3857 46.7189 25.8856 47.219C25.3855 47.719 24.7072 48 24 48H18.6667C17.9594 48 17.2811 48.281 16.781 48.781C16.281 49.2811 16 49.9594 16 50.6667C16 51.3739 16.281 52.0522 16.781 52.5523C17.2811 53.0524 17.9594 53.3333 18.6667 53.3333H24C26.1217 53.3333 28.1566 52.4905 29.6569 50.9902C31.1571 49.4899 32 47.4551 32 45.3333V24C32 23.2928 31.719 22.6145 31.219 22.1144C30.7189 21.6143 30.0406 21.3333 29.3333 21.3333ZM34.6667 29.3333V32C34.6667 34.1217 35.5095 36.1566 37.0098 37.6569C38.5101 39.1571 40.5449 40 42.6667 40H45.3333C46.0406 40 46.7189 40.281 47.219 40.781C47.719 41.2811 48 41.9594 48 42.6667V45.3333C48 46.0406 47.719 46.7189 47.219 47.219C46.7189 47.719 46.0406 48 45.3333 48H37.3333C36.6261 48 35.9478 48.281 35.4477 48.781C34.9476 49.2811 34.6667 49.9594 34.6667 50.6667C34.6667 51.3739 34.9476 52.0522 35.4477 52.5523C35.9478 53.0524 36.6261 53.3333 37.3333 53.3333H45.3333C47.4551 53.3333 49.4899 52.4905 50.9902 50.9902C52.4905 49.4899 53.3333 47.4551 53.3333 45.3333V42.6667C53.3333 40.5449 52.4905 38.5101 50.9902 37.0098C49.4899 35.5095 47.4551 34.6667 45.3333 34.6667H42.6667C41.9594 34.6667 41.2811 34.3857 40.781 33.8856C40.281 33.3855 40 32.7072 40 32V29.3333C40 28.6261 40.281 27.9478 40.781 27.4477C41.2811 26.9476 41.9594 26.6667 42.6667 26.6667H50.6667C51.3739 26.6667 52.0522 26.3857 52.5523 25.8856C53.0524 25.3855 53.3333 24.7072 53.3333 24C53.3333 23.2928 53.0524 22.6145 52.5523 22.1144C52.0522 21.6143 51.3739 21.3333 50.6667 21.3333H42.6667C40.5449 21.3333 38.5101 22.1762 37.0098 23.6765C35.5095 25.1768 34.6667 27.2116 34.6667 29.3333Z" fill="#D6BA00"/>
</svg>
