<svg width="55" height="55" viewBox="0 0 55 55" fill="none" xmlns="http://www.w3.org/2000/svg">
<circle cx="27.2433" cy="27.2433" r="27.2433" fill="#6442A6"/>
<path fill-rule="evenodd" clip-rule="evenodd" d="M17.2619 16.3544C15.1243 17.0353 13.6958 17.9093 12.1517 19.4809C9.71238 21.9631 8.75652 24.6063 8.95846 28.3108C9.10735 31.0407 10.1126 33.2219 12.1853 35.3134C14.7906 37.9422 17.7041 39.0242 21.6434 38.826C24.5533 38.6794 26.768 37.7792 28.6787 35.9662C29.92 34.7882 31.295 32.378 31.5836 30.8744C31.7278 30.122 31.5894 29.9365 29.4644 28.031L27.1908 25.9924H23.0407H18.8905V28.0143V30.0363H22.814C25.0259 30.0363 26.8053 30.1417 26.8928 30.2779C27.0868 30.5802 26.3739 32.2552 25.7738 32.9072C24.355 34.4482 20.4696 34.9042 17.8982 33.8318C15.0182 32.6305 13.101 29.5179 13.4923 26.6793C14.1632 21.8107 19.3007 19.0323 23.8571 21.0737C25.2962 21.7185 25.8649 22.2285 38.9217 34.5857C41.3452 36.8794 43.4429 38.7939 43.5829 38.8402C43.7449 38.8938 43.8376 34.7359 43.8376 27.4035V15.8826H41.4786H39.1197L39.0496 22.2444L38.9795 28.6065L33.4649 23.38C28.4216 18.6003 27.7622 18.0643 25.7512 17.1076C23.7484 16.155 23.3382 16.0534 21.1557 15.9695C19.3136 15.8985 18.4129 15.9877 17.2619 16.3544Z" fill="white"/>
</svg>
