<svg width="51" height="50" viewBox="0 0 51 50" fill="none" xmlns="http://www.w3.org/2000/svg">
<rect x="0.609863" width="50" height="50" rx="25" fill="url(#paint0_linear_1_160)"/>
<g clip-path="url(#clip0_1_160)">
<path d="M32.8765 28.2C32.2988 27.6222 31.6099 27.3333 30.8099 27.3333C30.0099 27.3333 29.321 27.6222 28.7432 28.2L27.5432 29.4C26.121 28.8222 24.8654 27.9889 23.7765 26.9C22.6876 25.8111 21.8321 24.5556 21.2099 23.1333L22.4099 21.8667C22.9876 21.2889 23.2765 20.6 23.2765 19.8C23.2765 19 22.9876 18.3111 22.4099 17.7333L19.6099 15H19.4099C18.3432 15 17.4432 15.3667 16.7099 16.1C15.9765 16.8333 15.6099 17.7333 15.6099 18.8C15.6099 20.9778 16.0321 23.0556 16.8765 25.0333C17.721 27.0111 18.8876 28.7444 20.3765 30.2333C21.8654 31.7222 23.5988 32.8889 25.5765 33.7333C27.5543 34.5778 29.6321 35 31.8099 35C32.8765 35 33.7765 34.6333 34.5099 33.9C35.2432 33.1667 35.6099 32.2667 35.6099 31.2V31L32.8765 28.2ZM31.8099 33.8C29.0988 33.8 26.5876 33.1333 24.2765 31.8C21.9654 30.4667 20.1432 28.6444 18.8099 26.3333C17.4765 24.0222 16.8099 21.5111 16.8099 18.8C16.8099 18.1333 17.0321 17.5444 17.4765 17.0333C17.921 16.5222 18.4765 16.2444 19.1432 16.2L21.6099 18.6C21.921 18.9111 22.0765 19.3111 22.0765 19.8C22.0765 20.2889 21.921 20.7111 21.6099 21.0667L19.8765 22.8L20.0099 23.2C20.6321 24.8889 21.5876 26.3778 22.8765 27.6667C24.1654 28.9556 25.6543 29.9333 27.3432 30.6L27.8099 30.8L29.5432 29.0667C29.8988 28.7111 30.321 28.5333 30.8099 28.5333C31.2988 28.5333 31.721 28.7111 32.0765 29.0667L34.4099 31.4667C34.3654 32.1333 34.0876 32.6889 33.5765 33.1333C33.0654 33.5778 32.4765 33.8 31.8099 33.8ZM32.6765 17.9333C31.7432 17 30.6654 16.2778 29.4432 15.7667C28.221 15.2556 26.9432 15 25.6099 15V16.2C27.2099 16.2 28.6876 16.5889 30.0432 17.3667C31.3988 18.1444 32.4654 19.2111 33.2432 20.5667C34.021 21.9222 34.4099 23.4 34.4099 25H35.6099C35.6099 23.6667 35.3543 22.3889 34.8432 21.1667C34.3321 19.9444 33.6099 18.8667 32.6765 17.9333ZM25.6099 18.5333V19.6667C26.5876 19.6667 27.4765 19.9111 28.2765 20.4C29.0765 20.8889 29.721 21.5333 30.2099 22.3333C30.6988 23.1333 30.9432 24.0222 30.9432 25H32.0765C32.0765 23.8444 31.7876 22.7667 31.2099 21.7667C30.6321 20.7667 29.8432 19.9778 28.8432 19.4C27.8432 18.8222 26.7654 18.5333 25.6099 18.5333Z" fill="#DDDDDD"/>
</g>
<defs>
<linearGradient id="paint0_linear_1_160" x1="15.2642" y1="-5.0459" x2="35.9555" y2="55.0459" gradientUnits="userSpaceOnUse">
<stop stop-color="#2A1454"/>
<stop offset="1" stop-color="#8750F7"/>
</linearGradient>
<clipPath id="clip0_1_160">
<rect width="20" height="20" fill="white" transform="matrix(1 0 0 -1 15.6099 35)"/>
</clipPath>
</defs>
</svg>
