<svg width="67" height="61" viewBox="0 0 67 61" fill="none" xmlns="http://www.w3.org/2000/svg">
<path d="M64 30.5388C64 37.7586 50.3447 43.6102 33.5 43.6102C16.6553 43.6102 3 37.7586 3 30.5388C3 23.319 16.6553 17.4673 33.5 17.4673C50.3447 17.4673 64 23.319 64 30.5388Z" stroke="#60D8ED" stroke-width="4.35714"/>
<path d="M18.9732 57.3569C25.3216 60.799 36.9682 51.5749 44.9941 36.765C53.0156 21.9507 54.375 7.15822 48.0267 3.72043C41.6783 0.278288 30.0317 9.50236 22.0058 24.3123C13.9843 39.1266 12.6249 53.9191 18.9732 57.3569Z" stroke="#60D8ED" stroke-width="4.35714"/>
<path d="M48.0267 57.3569C41.6783 60.799 30.0317 51.5749 22.0058 36.765C13.9843 21.9507 12.6249 7.15822 18.9732 3.72043C25.3216 0.278288 36.9682 9.50236 44.9941 24.3123C53.0156 39.1266 54.375 53.9191 48.0267 57.3569Z" stroke="#60D8ED" stroke-width="4.35714"/>
<path d="M29.1428 30.5389C29.1428 31.6945 29.6019 32.8027 30.419 33.6199C31.2361 34.437 32.3444 34.896 33.5 34.896C34.6556 34.896 35.7638 34.437 36.5809 33.6199C37.3981 32.8027 37.8571 31.6945 37.8571 30.5389C37.8571 29.3833 37.3981 28.2751 36.5809 27.4579C35.7638 26.6408 34.6556 26.1818 33.5 26.1818C32.3444 26.1818 31.2361 26.6408 30.419 27.4579C29.6019 28.2751 29.1428 29.3833 29.1428 30.5389Z" stroke="#60D8ED" stroke-width="4.35714"/>
</svg>
