<svg width="65" height="65" viewBox="0 0 65 65" fill="none" xmlns="http://www.w3.org/2000/svg">
<path d="M49.7656 0H15.2344C6.82066 0 0 6.82066 0 15.2344V49.7656C0 58.1793 6.82066 65 15.2344 65H49.7656C58.1793 65 65 58.1793 65 49.7656V15.2344C65 6.82066 58.1793 0 49.7656 0Z" fill="#764ABC"/>
<path d="M42.2953 42.0467C44.1694 41.8527 45.591 40.2371 45.5263 38.2986C45.4618 36.36 43.8462 34.8091 41.9076 34.8091H41.7784C39.775 34.8736 38.2242 36.5537 38.2887 38.557C38.3534 39.5265 38.7411 40.3664 39.3226 40.9481C37.1255 45.2777 33.7653 48.4442 28.7248 51.0937C25.2999 52.903 21.7457 53.5492 18.1915 53.097C15.2835 52.7093 13.022 51.4166 11.6001 49.2843C9.53227 46.1179 9.33854 42.6929 11.0831 39.268C12.311 36.8122 14.2496 35.0029 15.4775 34.0982C15.219 33.2583 14.8313 31.8364 14.6373 30.8025C5.26741 37.5879 6.23657 46.7641 9.07981 51.0937C11.2126 54.3246 15.542 56.3279 20.324 56.3279C21.6164 56.3279 22.9088 56.1987 24.2012 55.8755C32.473 54.2601 38.7411 49.3488 42.2953 42.0467Z" fill="white"/>
<path d="M53.6687 34.0338C48.7577 28.2823 41.5201 25.1161 33.2486 25.1161H32.2147C31.633 23.9527 30.4051 23.1772 29.0482 23.1772H28.919C26.9156 23.242 25.3648 24.9221 25.4293 26.9254C25.494 28.864 27.1094 30.4148 29.0482 30.4148H29.1774C30.5991 30.3504 31.827 29.4457 32.3439 28.2178H33.5071C38.4181 28.2178 43.0709 29.6394 47.2713 32.4182C50.5023 34.5507 52.8288 37.3295 54.1212 40.6897C55.2198 43.4037 55.1551 46.0532 53.992 48.315C52.1826 51.7399 49.1454 53.614 45.1388 53.614C42.554 53.614 40.0985 52.8386 38.8058 52.2569C38.0951 52.9031 36.8028 53.937 35.8981 54.5832C38.6766 55.8755 41.5201 56.5865 44.2341 56.5865C50.4378 56.5865 55.0259 53.1615 56.7707 49.7366C58.6448 45.9887 58.5155 39.5265 53.6687 34.0338Z" fill="white"/>
<path d="M20.8411 43.1454C20.9059 45.084 22.5212 46.6348 24.46 46.6348H24.5893C26.5923 46.5701 28.1435 44.89 28.0787 42.8867C28.0142 40.9481 26.3986 39.3972 24.46 39.3972H24.3305C24.2016 39.3972 24.0076 39.3972 23.8786 39.462C21.2288 35.0676 20.1304 30.2856 20.5181 25.116C20.7766 21.2389 22.069 17.8784 24.3308 15.0994C26.2046 12.7086 29.8236 11.5455 32.2791 11.4807C39.129 11.3515 42.037 19.8815 42.2307 23.3067C43.0709 23.5004 44.4925 23.9526 45.4619 24.2758C44.6865 13.8075 38.2243 8.37903 32.0206 8.37903C26.2046 8.37903 20.8411 12.5794 18.7086 18.7831C15.7361 27.0546 17.6746 35.0029 21.2933 41.2713C20.9703 41.7235 20.7764 42.4345 20.8411 43.1454Z" fill="white"/>
</svg>
