<svg width="72" height="72" viewBox="0 0 72 72" fill="none" xmlns="http://www.w3.org/2000/svg">
<g filter="url(#filter0_d_1_75)">
<path fill-rule="evenodd" clip-rule="evenodd" d="M36 0C42.329 0 48.5159 1.87677 53.7782 5.39297C59.0406 8.90918 63.1421 13.9069 65.5641 19.7541C67.9861 25.6014 68.6198 32.0355 67.3851 38.2429C66.1504 44.4503 63.1027 50.1521 58.6274 54.6274C54.1521 59.1027 48.4503 62.1504 42.2429 63.3851C36.0355 64.6198 29.6014 63.9861 23.7541 61.5641C17.9069 59.1421 12.9092 55.0406 9.39297 49.7782C5.87677 44.5159 4 38.329 4 32C4 23.5131 7.37142 15.3737 13.3726 9.37258C19.3737 3.37142 27.5131 0 36 0Z" fill="#CD6799"/>
</g>
<path d="M56.0732 13.696C54.624 8.01376 45.2 6.15319 36.2812 9.31205C30.6955 11.1887 25.5349 14.1488 21.0949 18.0229C16.1829 22.6172 15.3989 26.6172 15.7212 28.288C16.864 34.1852 24.9395 38.0389 28.2606 40.8983V40.9143C27.2823 41.3966 20.1143 45.0286 18.432 48.7315C16.6629 52.6446 18.7132 55.4515 20.0732 55.8286C22.1151 56.3202 24.2596 56.1602 26.2059 55.3711C28.1523 54.582 29.8027 53.2034 30.9257 51.4286C31.8545 49.991 32.4356 48.3568 32.6229 46.6555C32.8101 44.9542 32.5985 43.2327 32.0046 41.6275C33.604 41.2188 35.2673 41.1233 36.9029 41.3463C42.5166 42.0023 43.6183 45.5063 43.408 46.9738C43.3091 47.4961 43.0989 47.991 42.7917 48.4249C42.4844 48.8587 42.0873 49.2213 41.6275 49.488C41.2343 49.7326 41.1132 49.8149 41.1475 49.9978C41.1955 50.2606 41.376 50.2515 41.712 50.1943C42.5556 49.9286 43.299 49.4136 43.8441 48.7171C44.3892 48.0206 44.7105 47.1753 44.7657 46.2926C44.9006 42.864 41.6069 39.0103 35.7737 39.1086C34.0795 39.0587 32.3887 39.2904 30.7703 39.7943L30.5235 39.52C26.9166 35.6732 20.2515 32.9509 20.5326 27.7783C20.6355 25.8972 21.2892 20.9463 33.3326 14.9395C43.2069 10.0183 51.1109 11.3738 52.4777 14.3749C54.4297 18.6629 48.2537 26.6286 38 27.7783C36.8667 28.0084 35.6961 27.9803 34.5752 27.6962C33.4542 27.4121 32.4115 26.8793 31.5246 26.1372C30.9852 25.5429 30.9052 25.5178 30.704 25.6275C30.3772 25.808 30.5852 26.3338 30.704 26.6446C31.0968 27.3521 31.6268 27.9742 32.263 28.4742C32.8992 28.9742 33.6289 29.3422 34.4092 29.5566C38.4407 30.4314 42.6453 30.0155 46.4275 28.368C52.6469 25.9703 57.4972 19.2846 56.0732 13.696ZM29.6412 42.6583C30.0929 44.2236 30.0699 45.8878 29.5749 47.44C29.5216 47.6016 29.4629 47.7616 29.3989 47.92C29.3349 48.0785 29.2656 48.2309 29.1909 48.3772C28.8037 49.1628 28.3057 49.8887 27.712 50.5326C25.8538 52.56 23.2549 53.328 22.1418 52.6812C20.9395 51.984 21.5406 49.1246 23.696 46.8458C25.3528 45.2087 27.2621 43.8488 29.3509 42.8183L29.6412 42.6583Z" fill="white"/>
<defs>
<filter id="filter0_d_1_75" x="0" y="0" width="72" height="72" filterUnits="userSpaceOnUse" color-interpolation-filters="sRGB">
<feFlood flood-opacity="0" result="BackgroundImageFix"/>
<feColorMatrix in="SourceAlpha" type="matrix" values="0 0 0 0 0 0 0 0 0 0 0 0 0 0 0 0 0 0 127 0" result="hardAlpha"/>
<feOffset dy="4"/>
<feGaussianBlur stdDeviation="2"/>
<feComposite in2="hardAlpha" operator="out"/>
<feColorMatrix type="matrix" values="0 0 0 0 0 0 0 0 0 0 0 0 0 0 0 0 0 0 0.25 0"/>
<feBlend mode="normal" in2="BackgroundImageFix" result="effect1_dropShadow_1_75"/>
<feBlend mode="normal" in="SourceGraphic" in2="effect1_dropShadow_1_75" result="shape"/>
</filter>
</defs>
</svg>
