<svg width="63" height="63" viewBox="0 0 63 63" fill="none" xmlns="http://www.w3.org/2000/svg">
<path d="M9 19L61.5 27.5L60.5 59L9 60V19Z" fill="white"/>
<path d="M56.84 0H6.16C4.52627 0 2.95945 0.648998 1.80422 1.80422C0.648998 2.95945 0 4.52627 0 6.16V56.84C0 58.4737 0.648998 60.0406 1.80422 61.1958C2.95945 62.351 4.52627 63 6.16 63H56.84C57.6489 63 58.45 62.8407 59.1973 62.5311C59.9447 62.2215 60.6238 61.7678 61.1958 61.1958C61.7678 60.6238 62.2215 59.9447 62.5311 59.1973C62.8407 58.45 63 57.6489 63 56.84V6.16C63 5.35106 62.8407 4.55004 62.5311 3.80267C62.2215 3.05531 61.7678 2.37623 61.1958 1.80422C60.6238 1.23221 59.9447 0.778471 59.1973 0.468902C58.45 0.159333 57.6489 0 56.84 0ZM36.54 35H28.665V57.54H22.4V35H14.525V29.89H36.54V35ZM56.84 53.48C56.3333 54.5574 55.5169 55.4591 54.495 56.07C53.4199 56.7317 52.2342 57.1941 50.995 57.435C49.6134 57.7203 48.2058 57.8611 46.795 57.855C45.3515 57.8537 43.9109 57.7249 42.49 57.47C41.2823 57.2227 40.1077 56.8351 38.99 56.315V50.33L38.78 50.12H38.99V50.365C40.0427 51.1863 41.2258 51.8252 42.49 52.255C43.7524 52.7357 45.0943 52.9732 46.445 52.955C47.1508 52.9673 47.8556 52.8968 48.545 52.745C49.0628 52.6238 49.5587 52.4231 50.015 52.15C50.3722 51.9322 50.6722 51.6322 50.89 51.275C51.1055 50.8682 51.2002 50.4082 51.163 49.9494C51.1258 49.4905 50.9582 49.0518 50.68 48.685C50.351 48.2237 49.9348 47.8313 49.455 47.53C48.8724 47.1203 48.2511 46.7687 47.6 46.48L45.255 45.5C43.3987 44.7355 41.754 43.5349 40.46 42C39.3771 40.6946 38.805 39.0405 38.85 37.345C38.8092 36.057 39.0984 34.7799 39.69 33.635C40.2546 32.6371 41.0459 31.7858 42 31.15C43.063 30.4428 44.2508 29.9439 45.5 29.68C46.8657 29.3657 48.2636 29.213 49.665 29.225C50.9411 29.2072 52.2167 29.2891 53.48 29.47C54.5311 29.6343 55.5629 29.904 56.56 30.275V36.05C56.0993 35.7216 55.6068 35.4402 55.09 35.21C54.5335 34.9705 53.9603 34.7716 53.375 34.615C52.8141 34.4508 52.2404 34.3337 51.66 34.265C51.1245 34.2145 50.5855 34.2145 50.05 34.265C49.3905 34.2541 48.7322 34.3246 48.09 34.475C47.5632 34.5855 47.0559 34.7742 46.585 35.035C46.2175 35.2516 45.9058 35.5512 45.675 35.91C45.4655 36.2586 45.3565 36.6583 45.36 37.065C45.3515 37.4992 45.4734 37.9259 45.71 38.29C45.9975 38.6875 46.353 39.0311 46.76 39.305C47.2535 39.6979 47.7944 40.0271 48.37 40.285L50.575 41.265C51.5889 41.6841 52.5714 42.1754 53.515 42.735C54.3448 43.1891 55.1002 43.7675 55.755 44.45C56.3966 45.0718 56.8978 45.8236 57.225 46.655C57.5606 47.6105 57.7265 48.6173 57.715 49.63C57.69 50.9372 57.3919 52.2248 56.84 53.41V53.48Z" fill="#007ACC"/>
</svg>
